<?xml version="1.0" encoding="UTF-8" standalone="no"?>
<!DOCTYPE svg PUBLIC "-//W3C//DTD SVG 1.1//EN" "http://www.w3.org/Graphics/SVG/1.1/DTD/svg11.dtd">
<svg width="100%" height="100%" viewBox="0 0 1000 1000" version="1.1" xmlns="http://www.w3.org/2000/svg" xmlns:xlink="http://www.w3.org/1999/xlink" xml:space="preserve" xmlns:serif="http://www.serif.com/" style="fill-rule:evenodd;clip-rule:evenodd;stroke-linejoin:round;stroke-miterlimit:2;">
    <path d="M686.215,56.065C686.402,37.371 686.531,18.685 686.6,0L690.1,0C690.033,18.644 689.905,37.288 689.719,55.928C726.086,54.524 762.547,53.475 798.905,54.493C801.636,54.569 804.367,54.66 807.094,54.764C806.847,36.512 806.747,18.258 806.7,0L810.2,0C810.273,18.306 810.424,36.607 810.695,54.908C848.878,56.517 886.907,60.588 924.954,64.05C926.582,64.198 928.209,64.344 929.832,64.488C930.528,42.999 931.095,21.502 931.4,0L934.9,0C934.6,21.607 934.031,43.207 933.331,64.794C955.553,66.72 977.671,68.191 1000,68.2L1000,71.8L994.687,71.75C974.16,71.75 953.671,70.277 933.212,68.417C931.909,107.847 930.196,147.26 928.918,186.685C952.617,187.283 976.304,187.305 1000,187.5L1000,190.9C976.265,190.634 952.543,190.371 928.816,189.859C928.457,201.146 928.135,212.439 927.87,223.733C927.238,250.718 926.934,277.716 927.221,304.711C931.574,304.849 935.922,305.001 940.271,305.169C960.18,305.939 980.086,307.181 1000,307.8L1000,311.4C975.85,310.647 951.712,309.051 927.567,308.196L927.261,308.185C927.389,318.344 927.602,328.498 927.914,338.65C928.811,367.808 930.576,396.932 932.335,426.05C940.529,426.056 948.719,426.183 956.901,426.562C971.27,427.228 985.611,428.352 1000,428.4L1000,431.8C995.816,431.753 991.633,431.687 987.453,431.552C969.12,430.959 950.887,429.682 932.551,429.619C933.017,437.338 933.48,445.054 933.923,452.769C935.73,484.206 937.022,515.654 937.885,547.121C949.253,546.523 960.622,546.216 972.028,546.91C981.361,547.478 990.662,548.245 1000,548.4L1000,551.7C1000,551.7 962.746,549.239 944.108,550.303C942.066,550.419 940.024,550.537 937.981,550.655C939.147,594.743 939.479,638.851 939.217,682.977C939.208,684.574 939.198,686.171 939.187,687.778C959.458,688.082 979.726,688.162 1000,688.2L1000,691.7C979.716,691.662 959.439,691.553 939.163,691.163C938.881,730.041 938.246,768.914 937.56,807.793C946.027,808.457 954.504,808.911 963.011,808.802C973.934,808.661 1000,807.6 1000,807.6L1000,811.1C997.043,811.102 957.124,812.727 937.5,811.256C936.904,844.906 936.278,878.555 935.818,912.206C935.742,917.773 935.664,923.339 935.588,928.906C957.064,928.537 978.527,928.371 1000,928.3L1000,931.8C978.506,931.92 957.025,932.182 935.539,932.489C935.232,954.993 934.955,977.497 934.9,1000L931.4,1000C931.47,977.513 931.703,955.028 932.007,932.54C921.056,932.699 910.102,932.868 899.144,933.035C869.971,933.478 840.794,933.855 811.613,934.183C810.972,956.116 810.479,978.051 810.2,1000L806.7,1000C806.872,978.064 807.344,956.141 807.999,934.223C768.694,934.66 729.391,935.009 690.085,935.317C690.105,956.876 690.098,978.436 690.1,1000L686.6,1000C686.597,978.447 686.597,956.896 686.577,935.344C678.475,935.408 670.365,935.469 662.256,935.529C631.83,935.754 601.414,935.738 571.017,935.285C570.851,938.278 570.702,941.276 570.572,944.275C569.771,962.79 570.288,981.394 570.4,1000L566.9,1000C566.853,978.398 566.755,956.797 567.676,935.233C528.066,934.602 488.483,933.217 448.934,930.643C448.593,940.047 448.435,949.453 448.729,958.856C449.158,972.578 450.016,986.272 450.1,1000L446.6,1000C446.554,996.13 446.558,992.262 446.44,988.395C445.85,969.007 444.767,949.81 445.522,930.419C438.86,929.974 432.21,929.495 425.56,928.981C386.727,925.978 347.957,922.854 309.003,922.129C309.53,945.789 310.129,969.445 310.129,993.102L310.1,1000L306.5,1000C306.276,974.019 305.828,948.045 305.407,922.069C267.019,921.47 228.623,922.297 190.264,923.676C190.111,949.116 190.092,974.558 190.1,1000L186.6,1000C186.609,974.6 186.655,949.2 186.808,923.802C147.621,925.252 108.448,927.486 69.265,929.294C69.183,933.474 69.107,937.651 69.035,941.829C68.782,956.609 70.129,971.326 70.129,986.102L70.1,1000L66.8,1000C66.832,991.076 66.747,982.152 66.376,973.25C65.769,958.66 65.623,944.06 65.734,929.456C43.83,930.452 21.919,931.304 0,931.8L0,928.3C21.932,927.807 43.854,926.975 65.764,925.997C66.024,900.504 67.013,874.995 67.63,849.512C67.96,835.892 68.274,822.271 68.539,808.648C45.689,809.355 22.847,810.422 0,811.1L0,807.6C22.871,806.923 45.733,805.868 68.606,805.156C69.111,778.446 69.419,751.738 69.282,725.029C69.223,713.534 69.08,702.039 68.885,690.547C45.926,691.07 22.965,691.478 0,691.7L0,688.2C22.947,687.981 45.892,687.578 68.824,687.061C68.309,658.187 67.49,629.321 66.893,600.457C66.558,584.252 66.299,568.054 66.123,551.854C44.085,552.108 22.043,551.834 0,551.7L0,548.4C22.038,548.526 44.064,548.595 66.086,548.283C65.677,508.109 65.779,467.959 66.496,427.796C48.888,429.884 31.27,431.75 13.536,431.75L0,431.8L0,428.4C9.044,428.44 18.084,428.402 27.091,427.964C40.31,427.322 53.44,425.704 66.564,424.036C67.011,400.207 67.676,376.364 68.58,352.51C69.13,337.978 69.707,323.447 70.262,308.911C46.85,309.95 23.429,310.898 0,311.4L0,307.8C23.479,307.24 46.943,306.214 70.406,305.137C71.382,279.428 72.278,253.722 72.83,228.006C73.064,217.126 73.14,206.257 73.086,195.389C55.384,195.524 37.965,194.37 20.383,192.006C13.614,191.096 6.813,190.865 0,190.9L0,187.5C16.285,187.772 32.181,190.589 48.487,191.45C56.676,191.883 64.871,191.988 73.065,191.898C72.85,162.97 71.741,134.075 70.277,105.133C69.716,94.029 69.166,82.926 68.676,71.822C45.783,71.813 22.891,71.809 0,71.8L0,68.2C22.841,68.21 45.682,68.242 68.521,68.278C67.542,45.531 66.832,22.777 66.8,0L70.1,0C70.115,3.841 70.146,7.684 70.186,11.526C70.385,30.459 71.081,49.376 71.952,68.283C101.345,68.328 130.741,68.377 160.136,68.388C169.814,68.392 179.492,68.391 189.167,68.385C187.919,47.449 186.629,26.521 186.629,5.536L186.6,0L190.1,0C190.114,6.459 190.119,12.916 190.259,19.369C190.614,35.726 191.631,52.055 192.625,68.383C230.604,68.353 268.587,68.231 306.571,67.907C306.562,31.419 306.5,0 306.5,0L310.1,0C310.1,0 310.1,30.587 310.079,67.877C345.743,67.561 381.402,67.066 417.057,66.301C426.772,66.093 436.485,65.85 446.203,65.58C446.401,43.719 446.536,21.86 446.6,0L450.1,0C450.019,21.829 449.842,43.657 449.625,65.483C489.369,64.35 529.087,62.752 568.801,61.051C567.943,40.708 567.268,20.358 566.9,0L570.4,0C570.76,20.312 571.43,40.61 572.284,60.901C605.243,59.485 638.2,58.005 671.169,56.667C676.181,56.464 681.195,56.261 686.215,56.065ZM686.094,803.407C674.035,803.49 661.987,803.589 649.941,803.683L581.241,804.217C580.782,813.092 580.25,821.961 579.62,830.82C577.225,864.543 573.218,898.145 571.211,931.893C609.668,932.405 648.133,932.198 686.573,931.815C686.557,916.095 686.529,900.374 686.482,884.653C686.4,857.574 686.277,830.496 686.094,803.407ZM577.609,804.245L454.125,805.205C453.031,836.149 451.77,867.086 450.437,898.018C450.018,907.742 449.461,917.475 449.066,927.212C450.812,927.332 452.556,927.449 454.301,927.564C492.105,930.046 529.96,931.302 567.829,931.847C568.086,926.469 568.41,921.097 568.817,915.729C571.637,878.548 575.91,841.514 577.609,804.245ZM813.131,804.057C771.967,803.046 730.776,803.109 689.594,803.383C689.84,839.794 689.978,876.217 690.052,912.64C690.065,919.02 690.075,925.399 690.081,931.779L691.22,931.768C730.182,931.366 769.148,931.062 808.106,930.676C809.405,888.459 811.36,846.268 813.131,804.057ZM816.607,804.145C816.412,808.995 816.208,813.852 815.996,818.71C814.368,856.041 812.834,893.332 811.717,930.641C850.854,930.249 890.001,929.769 929.141,929.022L932.056,928.968C932.261,914.11 932.496,899.25 932.733,884.39C933.123,859.904 933.573,835.418 934.006,810.944C915.826,809.19 897.61,807.816 879.376,806.746C858.468,805.519 837.547,804.69 816.607,804.145ZM419.071,805.478L307.83,806.342C307.865,833.274 308.02,860.218 308.355,887.16C308.486,897.635 308.695,908.109 308.925,918.586C318.366,918.763 327.8,919.039 337.228,919.431C373.441,920.936 409.526,924.432 445.67,926.976C446.551,907.07 447.415,887.164 448.235,867.254C449.087,846.582 449.893,825.906 450.624,805.233L419.071,805.478ZM188.394,807.27C149.805,807.567 111.181,807.41 72.607,808.526L72.041,808.543C71.58,832.213 70.972,855.879 70.391,879.544C70.011,894.975 69.643,910.406 69.333,925.837C108.504,924.064 147.659,921.86 186.83,920.337C186.966,898.957 187.181,877.579 187.515,856.201C187.77,839.889 188.068,823.578 188.394,807.27ZM304.331,806.37L191.895,807.243C191.362,833.89 190.905,860.54 190.586,887.192C190.454,898.195 190.357,909.197 190.286,920.204C199.754,919.845 209.218,919.529 218.683,919.269C247.55,918.477 276.462,918.053 305.35,918.523C305.014,897.715 304.704,876.913 304.545,856.104C304.419,839.523 304.352,822.943 304.331,806.37ZM819.898,687.421C819.239,725.168 818.235,762.902 816.746,800.648C846.779,801.43 876.795,802.799 906.766,805.093C915.874,805.789 924.966,806.742 934.066,807.508C934.75,768.703 935.383,729.902 935.664,691.093C926.24,690.897 916.817,690.638 907.393,690.295C878.228,689.233 849.06,688.274 819.898,687.421ZM191.083,687.091C151.498,688.299 111.906,689.549 72.298,690.469C72.674,712.367 72.894,734.273 72.754,756.186C72.65,772.476 72.416,788.765 72.108,805.05C81.825,804.762 91.542,804.544 101.263,804.449C130.33,804.165 159.399,803.968 188.465,803.76C189.251,764.868 190.19,725.976 191.083,687.091ZM304.804,683.948C268.842,684.776 232.892,685.819 196.94,686.912L194.586,686.984C193.692,725.906 192.751,764.824 191.965,803.734C200.179,803.675 208.396,803.615 216.612,803.551L304.327,802.869C304.292,763.227 304.513,723.583 304.804,683.948ZM453.88,682.159C447.009,682.163 440.149,682.172 433.289,682.187C391.613,682.279 349.95,682.925 308.305,683.868C308.014,723.526 307.792,763.188 307.827,802.842L448.064,801.752L450.747,801.731C452.14,761.88 453.251,722.023 453.88,682.159ZM457.38,682.158C456.751,722.012 455.641,761.859 454.248,801.704C495.419,801.383 536.589,801.053 577.763,800.731C579.431,761.823 580.754,722.896 581.733,683.962L581.763,682.757C540.306,682.348 498.847,682.148 457.38,682.158ZM585.261,682.793C585.012,692.776 584.74,702.757 584.446,712.738C583.582,742.034 582.876,771.399 581.419,800.702C613.894,800.448 646.374,800.198 678.854,799.961C681.263,799.943 683.672,799.926 686.07,799.91C685.803,761.344 685.413,722.775 684.851,684.209C680.205,684.124 675.561,684.042 670.917,683.962C642.365,683.472 613.812,683.083 585.261,682.793ZM688.351,684.274C688.913,722.812 689.303,761.353 689.57,799.887C730.795,799.614 772.048,799.547 813.277,800.56C813.426,796.997 813.573,793.439 813.718,789.881C815.111,755.701 815.986,721.511 816.541,687.323C773.81,686.083 731.081,685.066 688.351,684.274ZM934.356,550.866C918.627,551.781 902.902,552.729 887.171,553.589C865.129,554.794 843.078,555.712 821.014,556.382C820.998,567.075 820.967,577.764 820.922,588.453C820.789,620.292 820.495,652.111 819.958,683.923C858.53,685.074 897.113,687.089 935.687,687.723C935.763,676.488 935.808,665.261 935.815,654.033C935.837,619.61 935.332,585.23 934.356,550.866ZM193.702,548.255C156.094,548.789 118.554,550.701 80.962,551.596C77.187,551.686 73.412,551.756 69.638,551.808C69.965,578.393 70.475,604.982 71.066,631.579C71.476,650.05 71.908,668.518 72.237,686.983C111.888,686.07 151.528,684.823 191.163,683.597C191.741,658.381 192.296,633.168 192.776,607.953C193.155,588.057 193.461,568.16 193.702,548.255ZM817.515,556.486C773.541,557.769 729.548,558.073 685.545,557.71C686.637,598.72 687.685,639.738 688.3,680.773C692.184,680.844 696.064,680.918 699.945,680.994C738.833,681.753 777.717,682.696 816.597,683.824C817.239,642.721 817.429,601.604 817.508,560.484L817.515,556.486ZM305.741,548.439C269.539,547.916 233.344,547.764 197.151,548.21C196.787,578.469 196.291,608.731 195.651,638.993C195.338,653.827 195.006,668.66 194.666,683.489C205.086,683.167 215.516,682.847 225.945,682.535C252.245,681.75 278.542,681.055 304.83,680.479C305.008,656.493 305.209,632.501 305.393,608.51C305.546,588.488 305.658,568.466 305.741,548.439ZM587.207,555.974C586.971,597.081 586.351,638.189 585.348,679.293C618.497,679.63 651.648,680.102 684.799,680.708C684.669,671.916 684.529,663.126 684.38,654.336C683.832,622.111 682.929,589.891 682.004,557.679C673.39,557.602 664.778,557.498 656.166,557.372C633.175,557.035 610.187,556.55 587.207,555.974ZM309.183,548.49C309.06,578.85 308.89,609.22 308.648,639.592C308.54,653.2 308.431,666.807 308.33,680.403C356.858,679.359 405.381,678.722 453.934,678.663C454.227,659.188 454.404,639.718 454.442,620.245C454.486,597.513 454.307,574.784 453.967,552.062C444.369,551.769 434.768,551.48 425.167,551.199C386.516,550.068 347.856,549.072 309.183,548.49ZM457.414,552.168C457.898,584.86 458.071,617.55 457.777,650.247C457.692,659.717 457.577,669.185 457.434,678.659C459.059,678.658 460.69,678.658 462.322,678.658C502.166,678.664 542.01,678.864 581.849,679.258C582.853,638.141 583.472,597.016 583.707,555.887C541.608,554.818 499.512,553.458 457.414,552.168ZM817.072,430.466C772.233,430.718 727.391,430.836 682.544,430.7C682.619,438.052 682.733,445.399 682.892,452.747C683.624,486.574 684.55,520.393 685.452,554.216C729.516,554.6 773.529,554.133 817.52,552.815C817.573,512.032 817.424,471.248 817.072,430.466ZM586.733,429.975C586.925,444.61 587.069,459.25 587.167,473.89C587.343,500.086 587.362,526.283 587.226,552.475C618.776,553.264 650.338,553.884 681.904,554.184C680.72,513.021 679.518,471.858 678.994,430.689C657.688,430.619 636.372,430.491 615.056,430.293C605.612,430.205 596.17,430.099 586.733,429.975ZM929.059,429.622C928.631,429.624 928.2,429.627 927.769,429.631C906.636,429.818 885.503,429.997 864.37,430.154C849.769,430.263 835.168,430.361 820.572,430.445C820.923,471.197 821.073,511.953 821.02,552.708C852.383,551.737 883.741,550.332 915.104,548.494C921.493,548.119 927.875,547.687 934.253,547.321C933.103,508.081 931.342,468.858 929.059,429.622ZM454.377,427.134C455.641,467.644 456.735,508.155 457.361,548.666C499.476,549.957 541.593,551.318 583.726,552.387C583.912,516.55 583.807,480.717 583.409,444.887C583.354,439.9 583.294,434.914 583.228,429.928C540.266,429.342 497.32,428.388 454.377,427.134ZM309.498,422.116C309.438,463.071 309.359,504.027 309.197,544.99C357.438,545.717 405.68,547.087 453.914,548.56C453.28,508.037 452.146,467.529 450.873,427.031C422.208,426.184 393.555,425.204 364.902,424.113C346.444,423.41 327.976,422.717 309.498,422.116ZM194.46,420.298C168.84,420.486 143.222,421.181 117.62,422.603C101.641,423.49 85.737,425.493 69.827,427.399C69.085,467.679 69.125,507.948 69.595,548.23C82.899,548.017 96.205,547.658 109.513,547.083C137.575,545.869 165.655,545.128 193.744,544.753C194.233,503.267 194.445,461.782 194.46,420.298ZM306.012,422.003C270.002,420.854 233.972,420.074 197.95,420.275C197.921,461.756 197.68,503.232 197.193,544.709C206.085,544.599 214.977,544.526 223.868,544.485C251.166,544.361 278.462,544.545 305.756,544.939C305.92,503.961 305.968,462.979 306.012,422.003ZM684.122,305.706C682.997,346.197 682.166,386.682 682.511,427.201C727.356,427.336 772.197,427.219 817.041,426.966C816.754,394.736 816.34,362.509 815.8,330.284C815.668,322.405 815.506,314.526 815.32,306.657C813.502,306.646 811.685,306.634 809.868,306.622C767.951,306.337 726.035,306.017 684.122,305.706ZM583.906,304.997C585.218,345.484 586.135,385.98 586.686,426.473C606.535,426.726 626.376,426.911 646.218,427.035C657.13,427.103 668.042,427.154 678.951,427.19L678.926,425.056C678.48,385.257 679.298,345.467 680.451,305.678C648.272,305.439 616.092,305.206 583.906,304.997ZM818.687,306.676C819.127,323.856 819.488,341.05 819.737,358.25C820.069,381.146 820.337,404.043 820.541,426.946C845.538,426.801 870.535,426.615 895.532,426.408C906.631,426.316 917.742,426.09 928.851,426.055L928.728,423.981C926.468,385.967 924.297,347.959 923.782,309.874C923.774,309.271 923.766,308.668 923.759,308.066C888.744,306.911 853.713,306.877 818.687,306.676ZM450.501,304.33C451.399,336.697 452.5,369.069 453.556,401.445C453.799,408.874 454.037,416.303 454.271,423.729C497.233,424.983 540.207,425.864 583.182,426.428C582.632,385.939 581.744,345.445 580.436,304.975C537.12,304.697 493.807,304.466 450.501,304.33ZM309.689,303.982C309.631,333.252 309.579,362.525 309.54,391.799L309.503,418.617C338.34,419.554 367.16,420.717 395.97,421.792C414.232,422.474 432.495,423.083 450.766,423.625C450.215,406.196 449.64,388.778 449.07,371.361C448.338,349.005 447.665,326.659 447.093,304.319C427.689,304.26 408.281,304.22 388.872,304.204C362.474,304.182 336.077,304.056 309.689,303.982ZM194.087,304.486C188.966,304.567 183.838,304.658 178.71,304.761C143.729,305.464 108.769,307.19 73.802,308.753C72.846,333.712 71.798,358.671 70.958,383.634C70.51,396.96 70.161,410.284 69.9,423.612C75.447,422.906 80.996,422.205 86.551,421.579C107.023,419.273 127.662,418.439 148.243,417.737C163.646,417.211 179.05,416.915 194.46,416.802C194.462,397.366 194.421,377.933 194.344,358.499C194.273,340.493 194.193,322.485 194.087,304.486ZM306.189,303.973C269.969,303.879 233.748,303.897 197.53,304.434C197.748,332.811 197.882,361.188 197.933,389.565C197.949,398.637 197.956,407.709 197.952,416.78C233.973,416.578 269.996,417.356 306.015,418.504C306.036,399.2 306.056,379.905 306.087,360.61C306.117,341.73 306.152,322.85 306.189,303.973ZM192.938,191.172L192.022,191.199C153.669,192.356 115.302,194.646 76.944,195.34L76.465,195.348C76.485,231.898 75.33,268.436 73.946,304.973C78.208,304.777 82.475,304.579 86.741,304.383C122.502,302.738 158.272,301.582 194.066,300.986C193.844,264.384 193.513,227.777 192.938,191.172ZM814.677,186.223C816.145,225.206 817.572,264.181 818.596,303.18C824.276,303.218 829.96,303.256 835.643,303.292C865.02,303.48 894.367,303.726 923.719,304.603C923.336,268.441 924.017,232.273 925.12,196.125C925.185,194.013 925.25,191.901 925.318,189.781C911.051,189.459 896.775,189.041 882.491,188.474C859.92,187.577 837.297,186.618 814.677,186.223ZM811.194,186.167C796.531,185.95 781.871,185.984 767.228,186.44C740.567,187.271 713.989,189.626 687.377,191.296C687.109,202.278 686.823,213.256 686.518,224.233C685.796,250.234 684.952,276.226 684.22,302.206C727.886,302.531 771.557,302.865 815.235,303.158C814.277,264.149 812.73,225.162 811.194,186.167ZM683.869,191.512C673.808,192.119 663.742,192.615 653.664,192.88C628.815,193.534 603.971,192.989 579.137,192.129C579.902,206.589 580.624,221.055 581.259,235.524C582.224,257.511 583.066,279.505 583.791,301.496C597.571,301.585 611.358,301.679 625.146,301.776C643.614,301.906 662.082,302.042 680.553,302.179C681.592,266.921 682.873,231.661 683.749,196.402L683.869,191.512ZM448.558,188.273C448.637,225.804 449.38,263.322 450.404,300.83C493.714,300.966 537.02,301.196 580.322,301.474C579.27,269.505 577.955,237.547 576.337,205.607C576.107,201.071 575.872,196.535 575.633,192.005C563.07,191.557 550.512,191.038 537.957,190.563C508.167,189.437 478.365,188.688 448.558,188.273ZM306.421,188.52C269.68,189.084 232.94,189.98 196.213,191.074C196.782,227.693 197.212,264.314 197.502,300.931C199.813,300.894 202.125,300.86 204.437,300.829C238.355,300.367 272.276,300.301 306.196,300.37C306.269,263.083 306.349,225.798 306.421,188.52ZM445.265,188.228C437.84,188.13 430.411,188.053 422.981,187.996C385.29,187.705 347.599,187.909 309.92,188.467C309.849,225.768 309.769,263.072 309.696,300.378C344.674,300.458 379.662,300.674 414.646,300.739C425.431,300.759 436.215,300.786 447.004,300.819C446.062,263.29 445.413,225.766 445.265,188.228ZM72.116,71.824C73.107,92.884 74.288,113.931 75.208,134.985C76.037,153.942 76.41,172.895 76.46,191.849C86.157,191.681 95.851,191.264 105.534,190.815C134.636,189.469 163.757,188.498 192.882,187.653C192.47,162.138 191.937,136.63 191.237,111.13C190.878,98.035 190.149,84.958 189.375,71.885C169.283,71.898 149.202,71.886 129.121,71.864C110.118,71.844 91.114,71.832 72.116,71.824ZM686.179,59.583C670.876,60.15 655.582,60.808 640.292,61.501C617.674,62.526 595.059,63.534 572.437,64.488C574.226,105.994 576.758,147.472 578.969,188.969C613.111,189.929 647.244,190.154 681.318,188.176C682.198,188.125 683.077,188.073 683.954,188.021C684.983,145.212 685.733,102.399 686.179,59.583ZM568.954,64.635C529.177,66.303 489.395,67.801 449.591,68.933C449.308,97.039 448.966,125.146 448.688,153.257C448.584,163.761 448.542,174.264 448.553,184.77L450.652,184.799C492.206,185.395 533.839,187.639 575.466,188.868C573.265,147.464 570.745,106.064 568.954,64.635ZM807.146,58.436C794.147,57.924 781.138,57.658 768.102,57.718C741.955,57.838 715.816,58.508 689.683,59.454C689.24,102.241 688.491,145.026 687.461,187.809C723.64,185.591 759.678,182.466 795.967,182.645C801,182.67 806.032,182.722 811.062,182.797C809.988,155.52 808.928,128.232 808.088,100.934C807.652,86.768 807.353,72.604 807.146,58.436ZM306.572,71.407C268.66,71.73 230.75,71.853 192.837,71.883C193.012,74.759 193.183,77.633 193.349,80.507C194.528,100.96 194.979,121.411 195.366,141.891C195.654,157.113 195.918,172.336 196.158,187.558C204.408,187.321 212.659,187.093 220.91,186.869C249.413,186.095 277.922,185.458 306.427,185.02C306.474,160.744 306.516,136.465 306.55,112.185C306.569,98.887 306.574,84.867 306.572,71.407ZM810.751,58.585C811.122,82.295 811.697,105.998 812.562,129.708C813.209,147.43 813.883,165.147 814.55,182.853C846.823,183.403 879.077,184.863 911.329,186.125C916.028,186.309 920.726,186.463 925.42,186.593C926.7,147.089 928.411,107.596 929.714,68.095C917.994,67.007 906.286,65.811 894.586,64.713C866.647,62.092 838.733,59.783 810.751,58.585ZM446.172,69.029C426.132,69.589 406.078,70.054 386.017,70.401C360.707,70.838 335.395,71.153 310.077,71.377C310.063,94.996 310.04,120.956 310.002,143.367C309.979,157.238 309.954,171.109 309.927,184.967C355.03,184.301 400.142,184.139 445.253,184.726C445.187,163.875 445.279,143.006 445.562,122.126C445.802,104.424 446.007,86.723 446.172,69.029Z" style="fill-rule:nonzero;"/>
</svg>
